<svg xmlns="http://www.w3.org/2000/svg" version="1.1" xmlns:xlink="http://www.w3.org/1999/xlink" xmlns:svgjs="http://svgjs.dev/svgjs" width="1440" height="200" preserveAspectRatio="none" viewBox="0 0 1440 200"><g mask="url(&quot;#SvgjsMask1056&quot;)" fill="none"><rect width="1440" height="200" x="0" y="0" fill="rgba(20, 61, 58, 1)"></rect><path d="M0,374.849C67.454,360.397,115.217,306.852,174.017,270.776C234.39,233.735,322.514,225.127,350.256,159.956C378.047,94.669,313.058,26.482,308.137,-44.303C302.636,-123.438,371.667,-217.089,319.867,-277.167C268.109,-337.197,166.674,-290.145,87.983,-299.642C25.095,-307.232,-32.916,-331.51,-96.125,-327.371C-172.779,-322.351,-256.548,-322.691,-315.325,-273.231C-376.629,-221.645,-421.701,-139.362,-414.367,-59.577C-407.175,18.668,-310.363,55.362,-278.519,127.195C-246.09,200.349,-289.387,304.074,-229.588,357.246C-171.044,409.302,-76.603,391.261,0,374.849" fill="#10302d"></path><path d="M1440 508.504C1497.73 503.809 1555.2930000000001 485.317 1598.76 447.036 1639.33 411.307 1642.881 351.712 1670.681 305.348 1703.254 251.024 1769.592 214.747 1775.834 151.714 1782.343 85.987 1744.505 23.433999999999997 1703.743-28.534999999999997 1661.652-82.19900000000001 1607.489-128.35399999999998 1541.7930000000001-146.673 1476.516-164.875 1403.044-161.173 1343.392-129.017 1287.718-99.005 1261.565-36.00999999999999 1232.396 20.110000000000014 1208.873 65.368 1198.463 113.742 1190.99 164.198 1183.4859999999999 214.868 1177.063 264.868 1188.761 314.73699999999997 1202.458 373.127 1216.238 437.655 1263.729 474.282 1312.104 511.591 1379.11 513.456 1440 508.504" fill="#184a47"></path></g><defs><mask id="SvgjsMask1056"><rect width="1440" height="200" fill="#ffffff"></rect></mask></defs></svg>