<svg id="visual" viewBox="0 0 1800 200" width="1800" height="200" xmlns="http://www.w3.org/2000/svg" xmlns:xlink="http://www.w3.org/1999/xlink" version="1.1"><rect x="0" y="0" width="1800" height="200" fill="#F7CACA"></rect><path d="M0 119L15.8 119.8C31.7 120.7 63.3 122.3 94.8 129.3C126.3 136.3 157.7 148.7 189.2 152.5C220.7 156.3 252.3 151.7 284 148C315.7 144.3 347.3 141.7 379 142.7C410.7 143.7 442.3 148.3 473.8 146.5C505.3 144.7 536.7 136.3 568.2 137.5C599.7 138.7 631.3 149.3 663 147.8C694.7 146.3 726.3 132.7 758 125.5C789.7 118.3 821.3 117.7 852.8 121C884.3 124.3 915.7 131.7 947.2 139.3C978.7 147 1010.3 155 1042 157.7C1073.7 160.3 1105.3 157.7 1137 151.8C1168.7 146 1200.3 137 1231.8 132.3C1263.3 127.7 1294.7 127.3 1326.2 130C1357.7 132.7 1389.3 138.3 1421 140.7C1452.7 143 1484.3 142 1516 142.5C1547.7 143 1579.3 145 1610.8 145.8C1642.3 146.7 1673.7 146.3 1705.2 146C1736.7 145.7 1768.3 145.3 1784.2 145.2L1800 145L1800 201L1784.2 201C1768.3 201 1736.7 201 1705.2 201C1673.7 201 1642.3 201 1610.8 201C1579.3 201 1547.7 201 1516 201C1484.3 201 1452.7 201 1421 201C1389.3 201 1357.7 201 1326.2 201C1294.7 201 1263.3 201 1231.8 201C1200.3 201 1168.7 201 1137 201C1105.3 201 1073.7 201 1042 201C1010.3 201 978.7 201 947.2 201C915.7 201 884.3 201 852.8 201C821.3 201 789.7 201 758 201C726.3 201 694.7 201 663 201C631.3 201 599.7 201 568.2 201C536.7 201 505.3 201 473.8 201C442.3 201 410.7 201 379 201C347.3 201 315.7 201 284 201C252.3 201 220.7 201 189.2 201C157.7 201 126.3 201 94.8 201C63.3 201 31.7 201 15.8 201L0 201Z" fill="#143D3A" stroke-linecap="round" stroke-linejoin="miter"></path></svg>